<mxfile host="app.diagrams.net" modified="2022-07-28T03:43:05.620Z" agent="5.0 (Windows NT 10.0; Win64; x64) AppleWebKit/537.36 (KHTML, like Gecko) Chrome/80.0.3987.100 Safari/537.36" etag="J8va0kFboMrRE69NZlJS" version="17.2.5" type="github">
  <diagram id="C5RBs43oDa-KdzZeNtuy" name="Page-1">
    <mxGraphModel dx="1422" dy="794" grid="1" gridSize="10" guides="1" tooltips="1" connect="1" arrows="1" fold="1" page="1" pageScale="1" pageWidth="827" pageHeight="1169" math="0" shadow="0">
      <root>
        <mxCell id="WIyWlLk6GJQsqaUBKTNV-0" />
        <mxCell id="WIyWlLk6GJQsqaUBKTNV-1" parent="WIyWlLk6GJQsqaUBKTNV-0" />
        <mxCell id="6NIB8VkJaH95DR8nrTyr-7" value="" style="edgeStyle=orthogonalEdgeStyle;rounded=0;orthogonalLoop=1;jettySize=auto;html=1;" edge="1" parent="WIyWlLk6GJQsqaUBKTNV-1" source="6NIB8VkJaH95DR8nrTyr-2" target="6NIB8VkJaH95DR8nrTyr-6">
          <mxGeometry relative="1" as="geometry" />
        </mxCell>
        <mxCell id="6NIB8VkJaH95DR8nrTyr-2" value="APP 初始化" style="whiteSpace=wrap;html=1;strokeWidth=2;" vertex="1" parent="WIyWlLk6GJQsqaUBKTNV-1">
          <mxGeometry x="354" y="130" width="120" height="60" as="geometry" />
        </mxCell>
        <mxCell id="6NIB8VkJaH95DR8nrTyr-13" value="Y" style="edgeStyle=orthogonalEdgeStyle;rounded=0;orthogonalLoop=1;jettySize=auto;html=1;" edge="1" parent="WIyWlLk6GJQsqaUBKTNV-1" source="6NIB8VkJaH95DR8nrTyr-6" target="6NIB8VkJaH95DR8nrTyr-12">
          <mxGeometry relative="1" as="geometry" />
        </mxCell>
        <mxCell id="6NIB8VkJaH95DR8nrTyr-15" value="N" style="edgeStyle=orthogonalEdgeStyle;rounded=0;orthogonalLoop=1;jettySize=auto;html=1;exitX=0;exitY=0.5;exitDx=0;exitDy=0;" edge="1" parent="WIyWlLk6GJQsqaUBKTNV-1" source="6NIB8VkJaH95DR8nrTyr-6" target="6NIB8VkJaH95DR8nrTyr-14">
          <mxGeometry relative="1" as="geometry" />
        </mxCell>
        <mxCell id="6NIB8VkJaH95DR8nrTyr-6" value="APP初始化&lt;br&gt;是否正常" style="rhombus;whiteSpace=wrap;html=1;strokeWidth=2;" vertex="1" parent="WIyWlLk6GJQsqaUBKTNV-1">
          <mxGeometry x="354" y="230" width="120" height="60" as="geometry" />
        </mxCell>
        <mxCell id="6NIB8VkJaH95DR8nrTyr-11" style="edgeStyle=orthogonalEdgeStyle;rounded=0;orthogonalLoop=1;jettySize=auto;html=1;entryX=0.5;entryY=0;entryDx=0;entryDy=0;" edge="1" parent="WIyWlLk6GJQsqaUBKTNV-1" source="6NIB8VkJaH95DR8nrTyr-10" target="6NIB8VkJaH95DR8nrTyr-2">
          <mxGeometry relative="1" as="geometry" />
        </mxCell>
        <mxCell id="6NIB8VkJaH95DR8nrTyr-10" value="Start" style="strokeWidth=2;html=1;shape=mxgraph.flowchart.start_1;whiteSpace=wrap;" vertex="1" parent="WIyWlLk6GJQsqaUBKTNV-1">
          <mxGeometry x="364" y="30" width="100" height="60" as="geometry" />
        </mxCell>
        <mxCell id="6NIB8VkJaH95DR8nrTyr-17" value="" style="edgeStyle=orthogonalEdgeStyle;rounded=0;orthogonalLoop=1;jettySize=auto;html=1;" edge="1" parent="WIyWlLk6GJQsqaUBKTNV-1" source="6NIB8VkJaH95DR8nrTyr-12" target="6NIB8VkJaH95DR8nrTyr-16">
          <mxGeometry relative="1" as="geometry" />
        </mxCell>
        <mxCell id="6NIB8VkJaH95DR8nrTyr-12" value="启动匿名 ID 获取线程" style="whiteSpace=wrap;html=1;strokeWidth=2;" vertex="1" parent="WIyWlLk6GJQsqaUBKTNV-1">
          <mxGeometry x="354" y="340" width="120" height="60" as="geometry" />
        </mxCell>
        <mxCell id="6NIB8VkJaH95DR8nrTyr-14" value="Finish" style="strokeWidth=2;html=1;shape=mxgraph.flowchart.start_1;whiteSpace=wrap;" vertex="1" parent="WIyWlLk6GJQsqaUBKTNV-1">
          <mxGeometry x="20" y="1060" width="100" height="60" as="geometry" />
        </mxCell>
        <mxCell id="6NIB8VkJaH95DR8nrTyr-19" style="edgeStyle=orthogonalEdgeStyle;rounded=0;orthogonalLoop=1;jettySize=auto;html=1;exitX=0.5;exitY=1;exitDx=0;exitDy=0;entryX=0.5;entryY=0;entryDx=0;entryDy=0;" edge="1" parent="WIyWlLk6GJQsqaUBKTNV-1" source="6NIB8VkJaH95DR8nrTyr-16" target="6NIB8VkJaH95DR8nrTyr-18">
          <mxGeometry relative="1" as="geometry" />
        </mxCell>
        <mxCell id="6NIB8VkJaH95DR8nrTyr-16" value="SDK 初始化" style="whiteSpace=wrap;html=1;strokeWidth=2;" vertex="1" parent="WIyWlLk6GJQsqaUBKTNV-1">
          <mxGeometry x="354" y="450" width="120" height="60" as="geometry" />
        </mxCell>
        <mxCell id="6NIB8VkJaH95DR8nrTyr-20" value="N" style="edgeStyle=orthogonalEdgeStyle;rounded=0;orthogonalLoop=1;jettySize=auto;html=1;exitX=0;exitY=0.5;exitDx=0;exitDy=0;" edge="1" parent="WIyWlLk6GJQsqaUBKTNV-1" source="6NIB8VkJaH95DR8nrTyr-18" target="6NIB8VkJaH95DR8nrTyr-14">
          <mxGeometry relative="1" as="geometry" />
        </mxCell>
        <mxCell id="6NIB8VkJaH95DR8nrTyr-22" value="Y" style="edgeStyle=orthogonalEdgeStyle;rounded=0;orthogonalLoop=1;jettySize=auto;html=1;" edge="1" parent="WIyWlLk6GJQsqaUBKTNV-1" source="6NIB8VkJaH95DR8nrTyr-18" target="6NIB8VkJaH95DR8nrTyr-21">
          <mxGeometry relative="1" as="geometry" />
        </mxCell>
        <mxCell id="6NIB8VkJaH95DR8nrTyr-18" value="SDK 初始化&lt;br&gt;是否正常" style="rhombus;whiteSpace=wrap;html=1;strokeWidth=2;" vertex="1" parent="WIyWlLk6GJQsqaUBKTNV-1">
          <mxGeometry x="354" y="560" width="120" height="60" as="geometry" />
        </mxCell>
        <mxCell id="6NIB8VkJaH95DR8nrTyr-24" value="" style="edgeStyle=orthogonalEdgeStyle;rounded=0;orthogonalLoop=1;jettySize=auto;html=1;" edge="1" parent="WIyWlLk6GJQsqaUBKTNV-1" source="6NIB8VkJaH95DR8nrTyr-21" target="6NIB8VkJaH95DR8nrTyr-23">
          <mxGeometry relative="1" as="geometry" />
        </mxCell>
        <mxCell id="6NIB8VkJaH95DR8nrTyr-21" value="AGNSS SDK 启动" style="whiteSpace=wrap;html=1;strokeWidth=2;" vertex="1" parent="WIyWlLk6GJQsqaUBKTNV-1">
          <mxGeometry x="354" y="660" width="120" height="60" as="geometry" />
        </mxCell>
        <mxCell id="6NIB8VkJaH95DR8nrTyr-26" value="" style="edgeStyle=orthogonalEdgeStyle;rounded=0;orthogonalLoop=1;jettySize=auto;html=1;" edge="1" parent="WIyWlLk6GJQsqaUBKTNV-1" source="6NIB8VkJaH95DR8nrTyr-23" target="6NIB8VkJaH95DR8nrTyr-25">
          <mxGeometry relative="1" as="geometry" />
        </mxCell>
        <mxCell id="6NIB8VkJaH95DR8nrTyr-23" value="启动&lt;br&gt;CORE SDK" style="whiteSpace=wrap;html=1;strokeWidth=2;" vertex="1" parent="WIyWlLk6GJQsqaUBKTNV-1">
          <mxGeometry x="354" y="760" width="120" height="60" as="geometry" />
        </mxCell>
        <mxCell id="6NIB8VkJaH95DR8nrTyr-28" style="edgeStyle=orthogonalEdgeStyle;rounded=0;orthogonalLoop=1;jettySize=auto;html=1;exitX=0.5;exitY=1;exitDx=0;exitDy=0;entryX=0.5;entryY=0;entryDx=0;entryDy=0;" edge="1" parent="WIyWlLk6GJQsqaUBKTNV-1" source="6NIB8VkJaH95DR8nrTyr-25" target="6NIB8VkJaH95DR8nrTyr-27">
          <mxGeometry relative="1" as="geometry" />
        </mxCell>
        <mxCell id="6NIB8VkJaH95DR8nrTyr-25" value="初始化&lt;br&gt;SOMEIP 播发服务" style="whiteSpace=wrap;html=1;strokeWidth=2;" vertex="1" parent="WIyWlLk6GJQsqaUBKTNV-1">
          <mxGeometry x="354" y="860" width="120" height="60" as="geometry" />
        </mxCell>
        <mxCell id="6NIB8VkJaH95DR8nrTyr-30" value="Y" style="edgeStyle=orthogonalEdgeStyle;rounded=0;orthogonalLoop=1;jettySize=auto;html=1;" edge="1" parent="WIyWlLk6GJQsqaUBKTNV-1" source="6NIB8VkJaH95DR8nrTyr-27" target="6NIB8VkJaH95DR8nrTyr-29">
          <mxGeometry relative="1" as="geometry" />
        </mxCell>
        <mxCell id="6NIB8VkJaH95DR8nrTyr-31" value="N" style="edgeStyle=orthogonalEdgeStyle;rounded=0;orthogonalLoop=1;jettySize=auto;html=1;entryX=0.5;entryY=0;entryDx=0;entryDy=0;entryPerimeter=0;" edge="1" parent="WIyWlLk6GJQsqaUBKTNV-1" source="6NIB8VkJaH95DR8nrTyr-27" target="6NIB8VkJaH95DR8nrTyr-14">
          <mxGeometry relative="1" as="geometry" />
        </mxCell>
        <mxCell id="6NIB8VkJaH95DR8nrTyr-27" value="SOMEIP初始化&lt;br&gt;是否正常" style="rhombus;whiteSpace=wrap;html=1;strokeWidth=2;" vertex="1" parent="WIyWlLk6GJQsqaUBKTNV-1">
          <mxGeometry x="354" y="960" width="120" height="60" as="geometry" />
        </mxCell>
        <mxCell id="6NIB8VkJaH95DR8nrTyr-29" value="启动 &lt;br&gt;SOMEIP 播发服务" style="whiteSpace=wrap;html=1;strokeWidth=2;" vertex="1" parent="WIyWlLk6GJQsqaUBKTNV-1">
          <mxGeometry x="354" y="1060" width="120" height="60" as="geometry" />
        </mxCell>
      </root>
    </mxGraphModel>
  </diagram>
</mxfile>
